<svg width="108" height="108" viewBox="0 0 108 108" fill="none" xmlns="http://www.w3.org/2000/svg">
<g clip-path="url(#clip0)" filter="url(#filter0_d)">
<path d="M103.428 27.9159L76.0843 0.572265C75.3212 -0.190236 74.0849 -0.190236 73.322 0.572265L45.9784 27.9159C45.42 28.4745 45.2528 29.3145 45.5552 30.0444C45.8573 30.7741 46.5694 31.2501 47.3595 31.2501H63.7657V53.0599C63.7657 54.1384 64.6404 55.013 65.7189 55.013C66.7974 55.013 67.672 54.1384 67.672 53.0599V29.2969C67.672 28.2184 66.7974 27.3438 65.7189 27.3438H52.0749L74.7033 4.71544L97.3316 27.3438H83.6877C82.6091 27.3438 81.7345 28.2184 81.7345 29.2969V85.5467H67.672V76.8879C67.672 75.8093 66.7974 74.9347 65.7189 74.9347C64.6404 74.9347 63.7657 75.8093 63.7657 76.8879V87.4998C63.7657 88.5783 64.6404 89.4529 65.7189 89.4529H83.6877C84.7662 89.4529 85.6408 88.5785 85.6408 87.4998V31.2501H102.047C102.837 31.2501 103.549 30.7741 103.851 30.0444C104.154 29.3145 103.987 28.4745 103.428 27.9159Z" fill="white"/>
<path d="M65.7191 59.0331C64.6406 59.0331 63.7659 59.9077 63.7659 60.9862V61.0499C63.7659 62.1284 64.6406 63.0031 65.7191 63.0031C66.7976 63.0031 67.6722 62.1286 67.6722 61.0499V60.9862C67.6722 59.9077 66.7976 59.0331 65.7191 59.0331Z" fill="white"/>
<path d="M62.445 69.9556C62.1428 69.2259 61.4307 68.7499 60.6407 68.7499H44.2346V37.8905C44.2346 36.812 43.36 35.9374 42.2815 35.9374C41.203 35.9374 40.3284 36.812 40.3284 37.8905V70.7029C40.3284 71.7814 41.203 72.656 42.2815 72.656H55.9254L33.2971 95.2844L10.6685 72.656H24.3127C25.3912 72.656 26.2658 71.7814 26.2658 70.7029V14.4532H40.3284V19.0756C40.3284 20.1541 41.203 21.0288 42.2815 21.0288C43.36 21.0288 44.2346 20.1541 44.2346 19.0756V12.5C44.2346 11.4215 43.36 10.5469 42.2815 10.5469H24.3129C23.2344 10.5469 22.3598 11.4215 22.3598 12.5V68.7497H5.95349C5.16345 68.7497 4.45134 69.2257 4.14919 69.9554C3.84685 70.6853 4.01403 71.5253 4.57243 72.0839L31.916 99.4275C32.2975 99.8088 32.7971 99.9996 33.2971 99.9996C33.7969 99.9996 34.2967 99.809 34.6782 99.4275L62.0218 72.0839C62.5802 71.5253 62.7473 70.6853 62.445 69.9556Z" fill="white"/>
<path d="M31.3436 53.7239C30.2651 53.7239 29.3905 54.5985 29.3905 55.6771V70.5876C29.3905 71.6662 30.2651 72.5408 31.3436 72.5408C32.4221 72.5408 33.2967 71.6663 33.2967 70.5876V55.6771C33.2967 54.5985 32.4221 53.7239 31.3436 53.7239Z" fill="white"/>
<path d="M31.3436 47.3454C30.2651 47.3454 29.3905 48.22 29.3905 49.2985V49.3239C29.3905 50.4024 30.2651 51.2771 31.3436 51.2771C32.4221 51.2771 33.2967 50.4026 33.2967 49.3239V49.2985C33.2967 48.22 32.4221 47.3454 31.3436 47.3454Z" fill="white"/>
</g>
<defs>
<filter id="filter0_d" x="0" y="0" width="108" height="108" filterUnits="userSpaceOnUse" color-interpolation-filters="sRGB">
<feFlood flood-opacity="0" result="BackgroundImageFix"/>
<feColorMatrix in="SourceAlpha" type="matrix" values="0 0 0 0 0 0 0 0 0 0 0 0 0 0 0 0 0 0 127 0"/>
<feOffset dy="4"/>
<feGaussianBlur stdDeviation="2"/>
<feColorMatrix type="matrix" values="0 0 0 0 0 0 0 0 0 0 0 0 0 0 0 0 0 0 0.25 0"/>
<feBlend mode="normal" in2="BackgroundImageFix" result="effect1_dropShadow"/>
<feBlend mode="normal" in="SourceGraphic" in2="effect1_dropShadow" result="shape"/>
</filter>
<clipPath id="clip0">
<rect width="100" height="100" fill="white" transform="translate(4)"/>
</clipPath>
</defs>
</svg>
